<svg width="85" height="29" viewBox="0 0 85 29" fill="none" xmlns="http://www.w3.org/2000/svg">
<path d="M0.163086 12.0608V1.08962H9.47129V3.64327H4.15231V12.0608H0.163086Z" fill="currentColor"/>
<path d="M8.52147 12.0608L12.5107 1.08962H17.3548L21.344 12.0608H17.1648L16.4999 10.0747H12.6057L11.9408 12.0608H8.52147ZM13.3655 7.89934H15.8351L14.6003 4.02159L13.3655 7.89934Z" fill="currentColor"/>
<path d="M27.5178 12.25C23.4336 12.25 22.0089 10.9259 21.6289 9.41261L24.9533 8.5614C25.2382 9.41262 25.8081 9.88551 27.2329 9.88551C28.6576 9.88551 29.1325 9.31804 29.1325 8.5614C29.1325 7.89934 28.6576 7.42645 27.3278 7.42645H25.3332V5.15654H27.3278C28.4676 5.15654 28.8475 4.68364 28.8475 4.02159C28.8475 3.35953 28.3726 2.88663 27.2329 2.88663C25.9981 2.88663 25.5232 3.35953 25.3332 4.11616L22.1988 3.73785C22.4838 2.13 23.8135 0.711304 27.7078 0.711304C31.602 0.711304 32.9318 2.13 32.9318 3.73785C32.9318 4.96738 32.1719 5.72402 31.1271 6.19691C32.3619 6.57523 33.3117 7.33187 33.3117 8.75056C33.2167 10.6421 31.792 12.25 27.5178 12.25Z" fill="currentColor"/>
<path d="M40.6253 12.25C36.5411 12.25 34.2615 10.1693 34.2615 6.57523C34.2615 2.88663 36.5411 0.900463 40.6253 0.900463C44.7095 0.900463 46.9891 2.98121 46.9891 6.38607C47.084 10.1693 44.7095 12.25 40.6253 12.25ZM38.5357 6.57523C38.5357 8.93972 39.4855 9.88551 40.7203 9.88551C41.955 9.88551 42.9048 8.93972 42.9048 6.48065C42.9048 4.11616 41.955 3.26495 40.7203 3.26495C39.4855 3.17037 38.5357 4.11616 38.5357 6.57523Z" fill="currentColor"/>
<path d="M48.5088 12.0608V1.08962H52.403V5.06196H56.2973V1.08962H60.1915V12.0608H56.2973V7.52103H52.403V12.0608H48.5088Z" fill="currentColor"/>
<path d="M61.9962 12.0608V1.08962H65.7954V4.96738H69.4047C72.2542 4.96738 73.7739 6.48065 73.7739 8.37224C73.7739 10.453 72.2542 11.9663 69.4047 11.9663H61.9962V12.0608ZM65.7954 9.79093H68.3599C69.3097 9.79093 69.7847 9.31804 69.7847 8.46682C69.7847 7.80476 69.3097 7.33187 68.3599 7.33187H65.7954V9.79093ZM74.7237 12.0608V1.08962H78.618V12.0608H74.7237Z" fill="currentColor"/>
<path d="M0.163086 26.2478V15.2765H4.05733V17.7356C4.05733 18.3977 4.05733 19.2489 3.96235 19.9109L7.76162 15.2765H11.6559L7.38169 20.1001L12.3207 26.2478H7.57166L3.96235 21.3296C3.96235 21.9917 4.05733 22.8429 4.05733 23.505V26.1532H0.163086V26.2478Z" fill="currentColor"/>
<path d="M12.0358 26.2478L16.025 15.2765H20.8691L24.8583 26.2478H20.6791L20.0143 24.2616H16.12L15.4551 26.2478H12.0358ZM16.8799 22.0863H19.3494L18.1146 18.2085L16.8799 22.0863Z" fill="currentColor"/>
<path d="M25.8081 26.2478V15.2765H29.7024V19.2489H33.5966V15.2765H37.4909V26.2478H33.5966V21.7079H29.7024V26.2478H25.8081Z" fill="currentColor"/>
<path d="M38.4407 26.2478L42.4299 15.2765H47.274L51.2632 26.2478H47.084L46.4192 24.2616H42.5249L41.86 26.2478H38.4407ZM43.1898 22.0863H45.6593L44.4245 18.2085L43.1898 22.0863Z" fill="currentColor"/>
<path d="M51.6432 28.4231V23.6941H53.1629C53.6378 22.5592 54.1127 20.7622 54.3976 17.8302L54.5876 15.2765H64.9406V23.6941H66.5553V28.4231H63.041V26.2478H55.3474V28.4231H51.6432ZM56.5822 23.6941H60.9514V17.7356H57.627L57.532 18.3977C57.437 20.8567 56.9621 22.6537 56.5822 23.6941Z" fill="currentColor"/>
<path d="M67.695 26.2478V15.2765H71.4943V19.1543H75.1036C77.9531 19.1543 79.4728 20.6676 79.4728 22.5592C79.4728 24.6399 77.9531 26.1532 75.1036 26.1532H67.695V26.2478ZM71.5893 23.9779H74.1538C75.1036 23.9779 75.5785 23.505 75.5785 22.6537C75.5785 21.9917 75.1036 21.5188 74.1538 21.5188H71.5893V23.9779ZM80.4226 26.2478V15.2765H84.3169V26.2478H80.4226Z" fill="currentColor"/>
</svg>
