<svg width="126" height="30" viewBox="0 0 126 30" fill="none" xmlns="http://www.w3.org/2000/svg">
<path d="M40.1631 13.0608V2.08962H49.4713V4.64327H44.1523V13.0608H40.1631Z" fill="#FCFDFC"/>
<path d="M48.5215 13.0608L52.5107 2.08962H57.3548L61.344 13.0608H57.1648L56.4999 11.0747H52.6057L51.9408 13.0608H48.5215ZM53.3655 8.89934H55.8351L54.6003 5.02159L53.3655 8.89934Z" fill="#FCFDFC"/>
<path d="M67.5178 13.25C63.4336 13.25 62.0089 11.9259 61.6289 10.4126L64.9533 9.5614C65.2382 10.4126 65.8081 10.8855 67.2329 10.8855C68.6576 10.8855 69.1325 10.318 69.1325 9.5614C69.1325 8.89934 68.6576 8.42645 67.3278 8.42645H65.3332V6.15654H67.3278C68.4676 6.15654 68.8475 5.68364 68.8475 5.02159C68.8475 4.35953 68.3726 3.88663 67.2329 3.88663C65.9981 3.88663 65.5232 4.35953 65.3332 5.11616L62.1988 4.73785C62.4838 3.13 63.8135 1.7113 67.7078 1.7113C71.602 1.7113 72.9318 3.13 72.9318 4.73785C72.9318 5.96738 72.1719 6.72402 71.1271 7.19691C72.3619 7.57523 73.3117 8.33187 73.3117 9.75056C73.2167 11.6421 71.792 13.25 67.5178 13.25Z" fill="#FCFDFC"/>
<path d="M80.6253 13.25C76.5411 13.25 74.2615 11.1693 74.2615 7.57523C74.2615 3.88663 76.5411 1.90046 80.6253 1.90046C84.7095 1.90046 86.9891 3.98121 86.9891 7.38607C87.084 11.1693 84.7095 13.25 80.6253 13.25ZM78.5357 7.57523C78.5357 9.93972 79.4855 10.8855 80.7203 10.8855C81.955 10.8855 82.9048 9.93972 82.9048 7.48065C82.9048 5.11616 81.955 4.26495 80.7203 4.26495C79.4855 4.17037 78.5357 5.11616 78.5357 7.57523Z" fill="#FCFDFC"/>
<path d="M88.5088 13.0608V2.08962H92.403V6.06196H96.2973V2.08962H100.192V13.0608H96.2973V8.52103H92.403V13.0608H88.5088Z" fill="#FCFDFC"/>
<path d="M101.996 13.0608V2.08962H105.795V5.96738H109.405C112.254 5.96738 113.774 7.48065 113.774 9.37224C113.774 11.453 112.254 12.9663 109.405 12.9663H101.996V13.0608ZM105.795 10.7909H108.36C109.31 10.7909 109.785 10.318 109.785 9.46682C109.785 8.80476 109.31 8.33187 108.36 8.33187H105.795V10.7909ZM114.724 13.0608V2.08962H118.618V13.0608H114.724Z" fill="#FCFDFC"/>
<path d="M40.1631 27.2478V16.2765H44.0573V18.7356C44.0573 19.3977 44.0573 20.2489 43.9623 20.9109L47.7616 16.2765H51.6559L47.3817 21.1001L52.3207 27.2478H47.5717L43.9623 22.3296C43.9623 22.9917 44.0573 23.8429 44.0573 24.505V27.1532H40.1631V27.2478Z" fill="#FCFDFC"/>
<path d="M52.0358 27.2478L56.025 16.2765H60.8691L64.8583 27.2478H60.6791L60.0143 25.2616H56.12L55.4551 27.2478H52.0358ZM56.8799 23.0863H59.3494L58.1146 19.2085L56.8799 23.0863Z" fill="#FCFDFC"/>
<path d="M65.8081 27.2478V16.2765H69.7024V20.2489H73.5966V16.2765H77.4909V27.2478H73.5966V22.7079H69.7024V27.2478H65.8081Z" fill="#FCFDFC"/>
<path d="M78.4407 27.2478L82.4299 16.2765H87.274L91.2632 27.2478H87.084L86.4192 25.2616H82.5249L81.86 27.2478H78.4407ZM83.1898 23.0863H85.6593L84.4245 19.2085L83.1898 23.0863Z" fill="#FCFDFC"/>
<path d="M91.6432 29.4231V24.6941H93.1629C93.6378 23.5592 94.1127 21.7622 94.3976 18.8302L94.5876 16.2765H104.941V24.6941H106.555V29.4231H103.041V27.2478H95.3474V29.4231H91.6432ZM96.5822 24.6941H100.951V18.7356H97.627L97.532 19.3977C97.437 21.8567 96.9621 23.6537 96.5822 24.6941Z" fill="#FCFDFC"/>
<path d="M107.695 27.2478V16.2765H111.494V20.1543H115.104C117.953 20.1543 119.473 21.6676 119.473 23.5592C119.473 25.6399 117.953 27.1532 115.104 27.1532H107.695V27.2478ZM111.589 24.9779H114.154C115.104 24.9779 115.579 24.505 115.579 23.6537C115.579 22.9917 115.104 22.5188 114.154 22.5188H111.589V24.9779ZM120.423 27.2478V16.2765H124.317V27.2478H120.423Z" fill="#FCFDFC"/>
<path d="M7.98949 18.6416C6.46979 17.7904 5.61495 16.8446 5.14004 16.2771C3.71532 14.4801 3.24041 12.5885 3.24041 12.5885C3.14543 12.2102 2.95547 11.2644 2.29059 10.3186C2.10063 9.94027 1.81568 9.65653 1.7207 9.56195C2.00565 9.65653 2.38558 9.65653 2.86048 9.75111C3.33539 9.84569 3.62034 9.84569 3.62034 9.84569C4.76012 10.0349 6.08986 9.94027 6.84971 10.0349C7.60957 10.1294 8.55938 10.4132 9.79415 11.5481C9.69917 10.7915 9.58339 10.0835 9.5092 9.75111C9.43502 9.41869 9.39342 9.23232 9.31924 8.8999C9.24505 8.56748 9.31924 8.14326 9.31924 7.85952C9.79415 8.427 10.2691 8.8999 10.649 9.18363C11.6938 10.1294 12.6436 10.6023 12.9285 10.7915C13.4034 11.0752 13.7834 11.1698 14.0683 11.2644C13.8784 10.9806 13.6884 10.5077 13.4984 9.94027C13.2135 9.08905 12.7386 7.76494 12.6436 5.96793C12.5486 5.11672 12.5486 3.98177 12.6436 2.75223C13.0235 2.94139 13.4035 3.22513 13.8784 3.41429C14.7332 3.88719 15.3981 4.45466 15.968 4.92756C16.0629 4.45466 16.1579 3.88719 16.3479 3.31971C16.7278 2.18476 17.2977 1.23896 17.7726 0.576904C18.0576 1.0498 18.2475 1.42812 18.4375 1.71186C19.1973 2.94139 19.4823 3.31971 19.7672 4.07634C19.9572 4.54924 20.1472 4.92756 20.1472 5.2113C20.4321 5.02214 20.717 4.7384 21.097 4.54924C22.0468 3.88719 22.9016 3.41429 23.7565 2.94139C23.8514 3.50887 23.9464 4.2655 23.9464 5.2113C23.9464 5.68419 23.9464 7.48121 23.1866 9.84569C22.9966 10.5077 22.7117 11.1698 22.3317 12.021C23.1866 11.5481 23.8514 11.1698 24.3263 10.8861C24.9912 10.4132 25.4661 10.1294 26.131 9.56195C26.6059 9.08906 26.9858 8.71074 27.1758 8.427C27.1758 8.99448 27.0808 9.65653 26.9858 10.3186C26.8909 10.9806 26.7959 11.6427 26.6059 12.2102C26.8909 12.021 27.3658 11.7373 28.0306 11.5481C29.3604 11.0752 30.5951 10.9806 31.355 10.9806C32.2098 10.9806 32.5898 10.9806 33.3496 10.8861C33.9195 10.7915 34.3944 10.6969 34.6793 10.6023C34.4894 10.7915 34.2994 11.0752 34.0145 11.4535C33.7295 11.9264 33.6346 12.3048 33.5396 12.3993C32.9697 13.818 32.6847 14.4801 32.4948 15.0476C31.6399 16.9392 30.4052 18.0741 30.1202 18.2633C29.5503 18.8307 28.8855 19.1145 28.5055 19.3982C28.7905 19.3982 29.2654 19.4928 29.8353 19.5874C30.5951 19.682 31.165 19.7765 32.8747 20.0603C33.2546 20.1549 34.0145 20.2494 34.3944 20.344C34.1095 20.7223 33.6345 21.1952 33.0647 21.8573C32.6847 22.2356 31.355 23.5597 29.2654 25.1676C27.7457 26.3025 26.9858 26.87 26.321 27.1537C24.8013 27.7212 23.2815 27.7212 21.7618 27.6266C20.4321 27.5321 19.3873 27.3429 18.6274 27.1537C18.5325 27.2483 18.3425 27.3429 18.0576 27.3429C17.7726 27.3429 17.5826 27.2483 17.4877 27.1537C17.1077 27.2483 16.6328 27.3429 16.0629 27.4375C15.2081 27.5321 13.5289 27.8222 12.0096 27.5154C10.8855 27.2884 9.70212 26.7372 7.80249 25.2239C6.1878 23.8998 4.19023 21.8573 1.91067 18.9253C3.24041 18.6416 4.8551 18.3578 6.65975 18.4524C7.13466 18.547 7.60957 18.547 7.98949 18.6416Z" fill="#DF0027"/>
</svg>
