<svg width="0" height="0"><symbol xmlns="http://www.w3.org/2000/svg" id="arrow-button" fill="none" viewBox="0 0 16 16"><path stroke="#FD4A4A" stroke-width="2" d="M8.013 3.138 12.849 8m0 0-4.836 4.862M12.849 8H3.15"/></symbol><symbol xmlns="http://www.w3.org/2000/svg" id="arrow" fill="none" viewBox="0 0 24 24"><path stroke="currentColor" stroke-width="3" d="M11.98 4.707 4.727 12m0 0 7.253 7.293M4.727 12h14.546"/></symbol><symbol xmlns="http://www.w3.org/2000/svg" id="back-arrow" fill="none" viewBox="0 0 24 24"><path fill="#060606" d="m8 18.45-6.5-6.5L8 5.45l1.85 1.925-3.25 3.25h15.9v2.65H6.6l3.25 3.25L8 18.45Z"/></symbol><symbol xmlns="http://www.w3.org/2000/svg" id="box" fill="none" viewBox="0 0 24 24"><path fill="#060606" d="M4.65 22.6c-.75 0-1.38-.254-1.888-.763C2.255 21.33 2 20.7 2 19.95V8.45a2.596 2.596 0 0 1-1-2.075V3.65c0-.75.254-1.38.762-1.887C2.272 1.253 2.9 1 3.65 1h16.3c.75 0 1.38.254 1.887.762.509.509.763 1.138.763 1.888v2.725a2.597 2.597 0 0 1-1 2.075v11.5c0 .75-.254 1.38-.763 1.887-.508.509-1.137.763-1.887.763H4.65ZM3.625 6.4h16.35V3.65H3.625V6.4Zm4.9 8.075H15.1v-2.7H8.525v2.7Z"/></symbol><symbol xmlns="http://www.w3.org/2000/svg" id="cart" fill="none" viewBox="0 0 24 24"><g clip-path="url(#a)"><mask id="b" width="24" height="24" x="0" y="0" maskUnits="userSpaceOnUse"><path fill="#D9D9D9" d="M0 0h24v24H0z"/></mask><g mask="url(#b)"><path fill="currentColor" d="M7.3 21c-.633 0-1.175-.23-1.625-.688A2.257 2.257 0 0 1 5 18.675V9.4L3.175 5H1V3h3.525l1.65 4H20.95c.383 0 .675.158.875.475.2.317.208.642.025.975L19 14.025c.85.133 1.563.525 2.137 1.175A3.36 3.36 0 0 1 22 17.5c0 .967-.337 1.792-1.012 2.475S19.492 21 18.524 21c-.983 0-1.813-.342-2.487-1.025a3.393 3.393 0 0 1-1.013-2.475c0-.333.042-.642.125-.925.083-.283.2-.558.35-.825l-3.275-.3-3 4.5a2.262 2.262 0 0 1-.838.775A2.267 2.267 0 0 1 7.3 21Zm.025-2.025c.033 0 .108-.042.225-.125l2.425-3.6c-.817-.083-1.458-.28-1.925-.588-.467-.308-.817-.629-1.05-.962v5c0 .083.033.15.1.2.067.05.142.075.225.075ZM18.5 19c.433 0 .792-.146 1.075-.438.283-.291.425-.645.425-1.062 0-.433-.142-.792-.425-1.075-.283-.283-.642-.425-1.075-.425-.417 0-.77.142-1.063.425-.291.283-.437.642-.437 1.075 0 .417.146.77.438 1.063.291.291.645.437 1.062.437Z"/></g></g><defs><clipPath id="a"><path fill="#fff" d="M0 0h24v24H0z"/></clipPath></defs></symbol><symbol xmlns="http://www.w3.org/2000/svg" id="check" fill="none" viewBox="0 0 12 8"><path fill="currentColor" d="M11.015 1.911 5.29 7.641a1 1 0 0 1-1.415 0L.949 4.711a1 1 0 0 1 0-1.414l.148-.148a1 1 0 0 1 1.414 0l1.364 1.36a1 1 0 0 0 1.413 0L9.453.35a1 1 0 0 1 1.414 0l.148.148a1 1 0 0 1 0 1.414Z"/></symbol><symbol xmlns="http://www.w3.org/2000/svg" id="copy" fill="none" viewBox="0 0 16 16"><g clip-path="url(#a)" mask="url(#b)"><path fill="#FCFDFC" d="M6.144 12.33a1.7 1.7 0 0 1-1.248-.519 1.7 1.7 0 0 1-.519-1.247V2.43c0-.485.173-.901.52-1.247a1.7 1.7 0 0 1 1.247-.52h6.133c.486 0 .902.174 1.248.52a1.7 1.7 0 0 1 .519 1.247v8.134a1.7 1.7 0 0 1-.519 1.247 1.701 1.701 0 0 1-1.248.52H6.144Zm-3.1 3.1a1.7 1.7 0 0 1-1.248-.519 1.701 1.701 0 0 1-.519-1.247v-9.9h1.767v9.9h7.9v1.766h-7.9Z"/></g></symbol><symbol xmlns="http://www.w3.org/2000/svg" id="cross" fill="none" viewBox="0 0 24 24"><path fill="currentColor" d="m6.3 19.625-1.85-1.9 5.675-5.7-5.675-5.75 1.85-1.9 5.725 5.75 5.675-5.75 1.85 1.9-5.675 5.75 5.675 5.7-1.85 1.9-5.675-5.75-5.725 5.75Z"/></symbol><symbol xmlns="http://www.w3.org/2000/svg" id="download" fill="none" viewBox="0 0 24 24"><g clip-path="url(#a)" mask="url(#b)"><path fill="#060606" d="m11.975 16.15-6-6L7.85 8.275l2.8 2.8V3.2h2.65v7.875l2.8-2.8 1.875 1.875-6 6ZM5.85 20.8c-.729 0-1.353-.26-1.872-.779A2.551 2.551 0 0 1 3.2 18.15v-3h2.65v3h12.3v-3h2.65v3a2.55 2.55 0 0 1-.779 1.875 2.558 2.558 0 0 1-1.871.775H5.85Z"/></g></symbol><symbol xmlns="http://www.w3.org/2000/svg" id="error" fill="none" viewBox="0 0 65 58"><path fill="#000" d="M63.805 47.453 38.676 4.162a7.087 7.087 0 0 0-2.6-2.551 7.159 7.159 0 0 0-7.069 0 7.088 7.088 0 0 0-2.6 2.55L1.279 47.454a6.661 6.661 0 0 0 0 6.761 6.97 6.97 0 0 0 2.593 2.562 7.04 7.04 0 0 0 3.542.913H57.67a7.04 7.04 0 0 0 3.538-.914 6.97 6.97 0 0 0 2.59-2.56 6.662 6.662 0 0 0 .007-6.762Zm-3.986 4.478c-.219.37-.533.677-.911.887-.378.21-.805.318-1.238.31H7.414c-.433.008-.86-.1-1.238-.31a2.433 2.433 0 0 1-.912-.887 2.15 2.15 0 0 1 0-2.2L30.392 6.438a2.53 2.53 0 0 1 4.31 0l25.13 43.292a2.15 2.15 0 0 1-.012 2.201ZM30.243 34.885V23.483c0-.605.242-1.185.673-1.613a2.308 2.308 0 0 1 3.251 0c.431.428.673 1.008.673 1.613v11.402c0 .605-.242 1.185-.673 1.612a2.308 2.308 0 0 1-3.25 0 2.271 2.271 0 0 1-.674-1.612Zm5.747 10.262a3.4 3.4 0 0 1-.581 1.9 3.442 3.442 0 0 1-1.548 1.26 3.474 3.474 0 0 1-3.757-.741 3.395 3.395 0 0 1-.747-3.728 3.41 3.41 0 0 1 1.27-1.535 3.468 3.468 0 0 1 4.353.425 3.407 3.407 0 0 1 1.01 2.419Z"/></symbol><symbol xmlns="http://www.w3.org/2000/svg" id="filter" fill="none" viewBox="0 0 25 24"><path fill="#FCFDFC" d="M17.687 21.1c-1.14 0-2.105-.394-2.893-1.182-.788-.788-1.182-1.752-1.182-2.893 0-1.141.394-2.105 1.182-2.893.788-.788 1.752-1.182 2.893-1.182 1.141 0 2.106.394 2.894 1.182.787.787 1.181 1.752 1.181 2.893 0 1.14-.394 2.105-1.181 2.893-.788.788-1.753 1.182-2.894 1.182Zm-13.95-2.75V15.7h7.9v2.65h-7.9Zm3.575-7.3c-1.14 0-2.105-.394-2.893-1.182-.788-.788-1.182-1.752-1.182-2.893 0-1.141.394-2.106 1.182-2.893C5.207 3.294 6.171 2.9 7.312 2.9c1.141 0 2.106.394 2.894 1.182.787.787 1.181 1.752 1.181 2.893 0 1.14-.394 2.105-1.181 2.893-.788.788-1.753 1.182-2.894 1.182Zm6.075-2.75V5.65h7.875V8.3h-7.875Z"/></symbol><symbol xmlns="http://www.w3.org/2000/svg" id="garbage" fill="none" viewBox="0 0 24 24"><path fill="#060606" d="M6.9 21.8c-.729 0-1.353-.26-1.872-.779a2.551 2.551 0 0 1-.778-1.871V5.9h-1V3.25h5.7v-1.2h6.15v1.2h5.7V5.9h-1v13.25c0 .729-.26 1.353-.779 1.872a2.552 2.552 0 0 1-1.871.778H6.9Zm1.575-4.675h2.65v-9.2h-2.65v9.2Zm4.45 0h2.65v-9.2h-2.65v9.2Z"/></symbol><symbol xmlns="http://www.w3.org/2000/svg" id="google" preserveAspectRatio="xMidYMid" viewBox="-3 0 262 262"><path fill="#4285F4" d="M255.878 133.451c0-10.734-.871-18.567-2.756-26.69H130.55v48.448h71.947c-1.45 12.04-9.283 30.172-26.69 42.356l-.244 1.622 38.755 30.023 2.685.268c24.659-22.774 38.875-56.282 38.875-96.027"/><path fill="#34A853" d="M130.55 261.1c35.248 0 64.839-11.605 86.453-31.622l-41.196-31.913c-11.024 7.688-25.82 13.055-45.257 13.055-34.523 0-63.824-22.773-74.269-54.25l-1.531.13-40.298 31.187-.527 1.465C35.393 231.798 79.49 261.1 130.55 261.1"/><path fill="#FBBC05" d="M56.281 156.37c-2.756-8.123-4.351-16.827-4.351-25.82 0-8.994 1.595-17.697 4.206-25.82l-.073-1.73L15.26 71.312l-1.335.635C5.077 89.644 0 109.517 0 130.55s5.077 40.905 13.925 58.602l42.356-32.782"/><path fill="#EB4335" d="M130.55 50.479c24.514 0 41.05 10.589 50.479 19.438l36.844-35.974C195.245 12.91 165.798 0 130.55 0 79.49 0 35.393 29.301 13.925 71.947l42.211 32.783c10.59-31.477 39.891-54.251 74.414-54.251"/></symbol><symbol xmlns="http://www.w3.org/2000/svg" id="grass" fill="none" viewBox="0 0 24 19"><path fill="#060606" d="M.496 18.954v-2.65h6.55c-.434-1.466-1.23-2.775-2.388-3.925S2.112 10.446.496 10.03c.383-.083.762-.15 1.137-.2a8.79 8.79 0 0 1 1.163-.075c2.566 0 4.741.892 6.525 2.675 1.783 1.784 2.675 3.959 2.675 6.525H.496Zm13.5 0c0-.8-.08-1.55-.238-2.25-.158-.7-.387-1.391-.687-2.075.85-1.566 1.991-2.77 3.425-3.612 1.433-.842 3-1.263 4.7-1.263.4 0 .787.03 1.162.088.375.058.754.13 1.138.212-1.617.417-2.996 1.205-4.138 2.363s-1.92 2.454-2.337 3.887h6.475v2.65h-9.5Zm-1.925-6.15a8.442 8.442 0 0 1 .412-3.687 9.293 9.293 0 0 1 1.813-3.125 9.285 9.285 0 0 1 2.9-2.2 8.99 8.99 0 0 1 3.675-.913c-1.067.667-2.05 1.563-2.95 2.688-.9 1.125-1.5 2.287-1.8 3.487a8.6 8.6 0 0 0-2.313 1.6 10.753 10.753 0 0 0-1.737 2.15Zm-1.525-1.85a8.862 8.862 0 0 0-1.088-.962 8.094 8.094 0 0 0-.987-.663c0-.116.012-.295.037-.537a5.78 5.78 0 0 0 .038-.538c0-1.466-.23-2.85-.688-4.15A12.122 12.122 0 0 0 5.896.554a9.779 9.779 0 0 1 3.45 2.4c1 1.067 1.783 2.434 2.35 4.1a8.158 8.158 0 0 0-.75 1.875 14.986 14.986 0 0 0-.4 2.025Z"/></symbol><symbol xmlns="http://www.w3.org/2000/svg" id="info" fill="none" viewBox="0 0 24 24"><path fill="currentColor" d="M10.5 17.2h2.65v-6.4H10.5v6.4Zm1.296-8.8c.353 0 .65-.12.892-.358.241-.239.362-.535.362-.888s-.12-.65-.358-.891a1.198 1.198 0 0 0-.887-.363c-.354 0-.65.12-.893.358a1.198 1.198 0 0 0-.362.888c0 .353.12.65.358.891.239.242.535.363.888.363Zm.004 14.2c-1.494 0-2.898-.284-4.212-.85a10.906 10.906 0 0 1-3.429-2.309 10.906 10.906 0 0 1-2.308-3.429A10.517 10.517 0 0 1 1 11.8c0-1.498.284-2.906.852-4.224a10.937 10.937 0 0 1 2.313-3.439 10.73 10.73 0 0 1 3.428-2.3A10.632 10.632 0 0 1 11.8 1c1.498 0 2.906.28 4.223.837a10.727 10.727 0 0 1 3.44 2.3 10.726 10.726 0 0 1 2.3 3.44 10.72 10.72 0 0 1 .837 4.225c0 1.499-.28 2.902-.838 4.21a10.748 10.748 0 0 1-2.3 3.424 10.937 10.937 0 0 1-3.438 2.312 10.556 10.556 0 0 1-4.224.852Z"/></symbol><symbol xmlns="http://www.w3.org/2000/svg" id="logo" fill="none" viewBox="0 0 34 28"><path fill="currentColor" d="M6.99 18.642a9.867 9.867 0 0 1-2.85-2.365c-1.425-1.797-1.9-3.689-1.9-3.689-.095-.378-.285-1.324-.95-2.27a3.014 3.014 0 0 0-.57-.756c.286.095.666.095 1.14.19.475.094.76.094.76.094 1.14.189 2.47.094 3.23.189.76.094 1.71.378 2.944 1.513a23.32 23.32 0 0 0-.285-1.797L8.32 8.9c-.074-.333 0-.757 0-1.04.475.567.95 1.04 1.33 1.324 1.045.945 1.995 1.418 2.28 1.607.474.284.854.379 1.14.473-.19-.283-.38-.756-.57-1.324-.286-.85-.76-2.175-.855-3.972-.095-.851-.095-1.986 0-3.216.38.19.76.473 1.234.662.855.473 1.52 1.04 2.09 1.514.095-.473.19-1.04.38-1.608.38-1.135.95-2.081 1.425-2.743.285.473.474.851.665 1.135.76 1.23 1.044 1.608 1.33 2.364.19.473.38.852.38 1.135.284-.189.569-.473.949-.662.95-.662 1.805-1.135 2.66-1.608.094.568.19 1.325.19 2.27 0 .473 0 2.27-.76 4.635-.19.662-.475 1.324-.855 2.175.855-.473 1.52-.851 1.994-1.135.665-.473 1.14-.757 1.805-1.324.475-.473.855-.851 1.045-1.135 0 .567-.095 1.23-.19 1.892-.095.662-.19 1.324-.38 1.891.285-.189.76-.473 1.425-.662a10.103 10.103 0 0 1 3.324-.567c.855 0 1.235 0 1.995-.095.57-.095 1.044-.19 1.33-.284-.19.19-.38.473-.666.851-.285.473-.38.852-.474.946-.57 1.419-.855 2.081-1.045 2.649-.855 1.891-2.09 3.026-2.375 3.215-.57.568-1.235.851-1.614 1.135.285 0 .76.095 1.33.19.76.094 1.329.188 3.039.472.38.095 1.14.19 1.52.284-.286.378-.76.851-1.33 1.513-.38.379-1.71 1.703-3.8 3.31-1.52 1.135-2.28 1.703-2.944 1.987-1.52.567-3.04.567-4.56.473a18.467 18.467 0 0 1-3.134-.473c-.095.094-.284.189-.57.189-.284 0-.474-.095-.57-.19-.38.095-.854.19-1.424.285-.855.094-2.534.384-4.053.077-1.124-.227-2.308-.778-4.208-2.291C5.188 23.9 3.19 21.857.911 18.925c1.33-.283 2.944-.567 4.749-.473.475.095.95.095 1.33.19Z"/></symbol><symbol xmlns="http://www.w3.org/2000/svg" id="menu" fill="none" viewBox="0 0 24 24"><path fill="currentColor" d="M2.492 18.145v-2.65h19.6v2.65h-19.6Zm0-5.15v-2.65h19.6v2.65h-19.6Zm0-5.15v-2.65h19.6v2.65h-19.6Z"/></symbol><symbol xmlns="http://www.w3.org/2000/svg" id="minus" fill="none" viewBox="0 0 24 24"><path fill="currentColor" d="M5.11 13.3v-2.65h13.6v2.65H5.11Z"/></symbol><symbol xmlns="http://www.w3.org/2000/svg" id="plus-menu" fill="none" viewBox="0 0 24 24"><path fill="#060606" d="M10.991 13.636H4.516v-2.65h6.475V4.511h2.65v6.475h6.475v2.65h-6.475v6.475h-2.65v-6.475Z"/></symbol><symbol xmlns="http://www.w3.org/2000/svg" id="plus" fill="none" viewBox="0 0 24 24"><path fill="currentColor" d="M10.991 13.636H4.516v-2.65h6.475V4.511h2.65v6.475h6.475v2.65h-6.475v6.475h-2.65v-6.475Z"/></symbol><symbol xmlns="http://www.w3.org/2000/svg" id="share" fill="none" viewBox="0 0 24 24"><path fill="#060606" d="M2.611 20.289v-6.4l8.6-2.175-8.6-2.175v-6.35l15.075 6.375h-.475c-2.117 0-3.93.72-5.437 2.162-1.509 1.442-2.263 3.213-2.263 5.313v.325l-6.9 2.925Zm14.6 2.675c-1.567 0-2.908-.558-4.025-1.675-1.117-1.117-1.675-2.458-1.675-4.025 0-1.567.558-2.908 1.675-4.025 1.117-1.117 2.458-1.675 4.025-1.675 1.567 0 2.908.558 4.025 1.675 1.117 1.117 1.675 2.458 1.675 4.025 0 1.567-.558 2.908-1.675 4.025-1.117 1.117-2.458 1.675-4.025 1.675Zm0-2.575 3.15-3.15-.75-.75-1.85 1.85v-4.2h-1.1v4.2l-1.85-1.85-.75.75 3.15 3.15Z"/></symbol><symbol xmlns="http://www.w3.org/2000/svg" id="text-logo" fill="none" viewBox="0 0 126 30"><path fill="#FCFDFC" d="M40.163 13.06V2.09h9.308v2.553h-5.319v8.418h-3.989Zm8.359 0L52.51 2.09h4.844l3.989 10.97h-4.18l-.664-1.985h-3.894l-.665 1.986h-3.42Zm4.843-4.16h2.47L54.6 5.021l-1.235 3.877Zm14.153 4.35c-4.084 0-5.51-1.324-5.89-2.837l3.325-.852c.285.852.855 1.325 2.28 1.325 1.425 0 1.9-.568 1.9-1.325 0-.662-.475-1.135-1.805-1.135h-1.995v-2.27h1.995c1.14 0 1.52-.472 1.52-1.134 0-.662-.475-1.135-1.615-1.135-1.235 0-1.71.473-1.9 1.23l-3.134-.38c.285-1.607 1.614-3.026 5.509-3.026 3.894 0 5.224 1.419 5.224 3.027 0 1.23-.76 1.986-1.805 2.459 1.235.378 2.185 1.135 2.185 2.554-.095 1.891-1.52 3.499-5.794 3.499Zm13.107 0c-4.084 0-6.364-2.08-6.364-5.675 0-3.688 2.28-5.675 6.364-5.675 4.085 0 6.364 2.081 6.364 5.486.095 3.783-2.28 5.864-6.364 5.864Zm-2.09-5.675c0 2.365.95 3.31 2.185 3.31s2.185-.945 2.185-3.404c0-2.365-.95-3.216-2.185-3.216-1.234-.095-2.184.851-2.184 3.31Zm9.974 5.485V2.09h3.894v3.972h3.894V2.09h3.895v10.97h-3.895V8.522h-3.894v4.54h-3.894Zm13.487 0V2.09h3.799v3.877h3.61c2.849 0 4.369 1.514 4.369 3.405 0 2.081-1.52 3.594-4.369 3.594h-7.409v.095Zm3.799-2.27h2.565c.95 0 1.425-.472 1.425-1.323 0-.662-.475-1.135-1.425-1.135h-2.565v2.459Zm8.929 2.27V2.09h3.894v10.97h-3.894ZM40.163 27.248V16.276h3.894v2.46c0 .662 0 1.513-.095 2.175l3.8-4.635h3.894L47.382 21.1l4.939 6.148h-4.75l-3.609-4.918c0 .662.095 1.513.095 2.175v2.648h-3.894v.095Z"/><path fill="#FCFDFC" d="m52.036 27.248 3.989-10.972h4.844l3.99 10.972h-4.18l-.665-1.986H56.12l-.665 1.986h-3.42Zm4.844-4.162h2.47l-1.235-3.877-1.235 3.877Zm8.928 4.162V16.276h3.894v3.973h3.895v-3.973h3.894v10.972h-3.894v-4.54h-3.895v4.54h-3.894Zm12.632 0 3.99-10.972h4.844l3.99 10.972h-4.18l-.665-1.986h-3.894l-.665 1.986h-3.42Zm4.75-4.162h2.47l-1.236-3.877-1.234 3.877Zm8.453 6.337v-4.729h1.52c.475-1.135.95-2.932 1.235-5.864l.19-2.553h10.353v8.417h1.614v4.73h-3.514v-2.176h-7.694v2.175h-3.704Zm4.94-4.729h4.368v-5.958h-3.324l-.095.662c-.095 2.459-.57 4.256-.95 5.296Zm11.112 2.554V16.276h3.799v3.878h3.61c2.849 0 4.369 1.514 4.369 3.405 0 2.08-1.52 3.594-4.369 3.594h-7.409v.095Zm3.894-2.27h2.565c.95 0 1.425-.473 1.425-1.324 0-.662-.475-1.135-1.425-1.135h-2.565v2.459Zm8.834 2.27V16.276h3.894v10.972h-3.894Z"/><path fill="#DF0027" d="M7.99 18.642a9.867 9.867 0 0 1-2.85-2.365c-1.425-1.797-1.9-3.689-1.9-3.689-.095-.378-.285-1.324-.95-2.27a2.998 2.998 0 0 0-.57-.756c.286.095.666.095 1.14.19.475.094.76.094.76.094 1.14.189 2.47.094 3.23.189.76.094 1.71.378 2.944 1.513a23.32 23.32 0 0 0-.285-1.797L9.32 8.9c-.074-.333 0-.757 0-1.04.475.567.95 1.04 1.33 1.324 1.045.945 1.995 1.418 2.28 1.607.474.284.854.379 1.14.473-.19-.283-.38-.756-.57-1.324-.286-.85-.76-2.175-.855-3.972-.095-.851-.095-1.986 0-3.216.38.19.76.473 1.234.662.855.473 1.52 1.04 2.09 1.514.095-.473.19-1.04.38-1.608.38-1.135.95-2.081 1.425-2.743.285.473.474.851.665 1.135.76 1.23 1.044 1.608 1.33 2.364.19.473.38.852.38 1.135.284-.189.569-.473.949-.662.95-.662 1.805-1.135 2.66-1.608.094.568.19 1.325.19 2.27 0 .473 0 2.27-.76 4.635-.19.662-.475 1.324-.855 2.175.855-.473 1.52-.851 1.994-1.135.665-.473 1.14-.757 1.805-1.324.475-.473.855-.851 1.045-1.135 0 .567-.095 1.23-.19 1.892-.095.662-.19 1.324-.38 1.891.285-.189.76-.473 1.425-.662a10.103 10.103 0 0 1 3.324-.567c.855 0 1.235 0 1.995-.095.57-.095 1.044-.19 1.33-.284-.19.19-.38.473-.666.851-.285.473-.38.852-.474.946-.57 1.419-.855 2.081-1.045 2.649-.855 1.891-2.09 3.026-2.375 3.215-.57.568-1.235.851-1.614 1.135.285 0 .76.095 1.33.19.76.094 1.329.188 3.039.472.38.095 1.14.19 1.52.284-.286.378-.76.851-1.33 1.513-.38.379-1.71 1.703-3.8 3.31-1.52 1.135-2.28 1.703-2.944 1.987-1.52.567-3.04.567-4.56.473a18.467 18.467 0 0 1-3.134-.473c-.095.094-.284.189-.57.189-.284 0-.474-.095-.57-.19-.38.095-.854.19-1.424.285-.855.094-2.534.384-4.053.077-1.124-.227-2.308-.778-4.208-2.291-1.614-1.324-3.612-3.367-5.891-6.299 1.33-.283 2.944-.567 4.749-.473.475.095.95.095 1.33.19Z"/></symbol><symbol xmlns="http://www.w3.org/2000/svg" id="yandex" fill="none" viewBox="0 0 56 56"><path fill="currentColor" d="M34.72 39.76h-4.122V19.419h-1.84c-3.37 0-5.131 1.68-5.131 4.187 0 2.843 1.217 4.161 3.731 5.841l2.073 1.396-5.96 8.917h-4.432l5.365-7.961c-3.085-2.196-4.82-4.342-4.82-7.96 0-4.523 3.161-7.599 9.148-7.599h5.961v23.52h.026Z"/></symbol><symbol xmlns="http://www.w3.org/2000/svg" id="zoom" fill="none" viewBox="0 0 24 24"><path fill="currentColor" d="m19.61 21.575-6.35-6.35c-.5.383-1.113.687-1.838.912a7.424 7.424 0 0 1-2.213.338c-1.983 0-3.662-.688-5.037-2.063-1.375-1.375-2.063-3.054-2.063-5.037s.688-3.663 2.063-5.038c1.375-1.375 3.054-2.062 5.037-2.062 1.984 0 3.663.687 5.038 2.062 1.375 1.375 2.062 3.055 2.062 5.038 0 .75-.104 1.467-.312 2.15a5.863 5.863 0 0 1-.913 1.825l6.375 6.375-1.85 1.85Zm-10.4-7.75c1.25 0 2.303-.43 3.162-1.288.858-.858 1.287-1.912 1.287-3.162s-.429-2.304-1.287-3.163c-.858-.858-1.913-1.287-3.163-1.287-1.25 0-2.304.43-3.162 1.287-.858.859-1.288 1.913-1.288 3.163 0 1.25.43 2.304 1.288 3.162.858.859 1.912 1.288 3.162 1.288Z"/></symbol></svg>