<svg width="0" height="0"><symbol xmlns="http://www.w3.org/2000/svg" id="coin" fill="none" viewBox="0 0 25 24"><g clip-path="url(#a)"><path fill="currentColor" d="M12.799 24.223c-2.084 0-3.98-.476-5.688-1.425-1.708-.95-3.07-2.184-4.087-3.7v2.3H.374v-6.9h6.9v2.65H4.849c.816 1.3 1.916 2.362 3.3 3.187 1.383.825 2.933 1.238 4.65 1.238 1.25 0 2.437-.238 3.562-.713a9.277 9.277 0 0 0 2.95-1.962 9.369 9.369 0 0 0 2-2.938c.492-1.125.738-2.338.738-3.638h2.65c0 1.667-.317 3.226-.95 4.675a12.058 12.058 0 0 1-2.563 3.776 12.005 12.005 0 0 1-3.775 2.524 11.595 11.595 0 0 1-4.612.925Zm-1.15-4.55v-1.35c-.85-.2-1.538-.584-2.063-1.15-.525-.567-.887-1.3-1.087-2.2l2.15-.8c.15.733.433 1.274.85 1.624.416.35.9.526 1.45.526.533 0 .966-.113 1.3-.338.333-.225.5-.58.5-1.063 0-.45-.221-.816-.663-1.1-.441-.283-1.187-.616-2.237-1-.95-.333-1.663-.766-2.138-1.3C9.236 10.99 9 10.307 9 9.473c0-.75.246-1.42.737-2.012.492-.592 1.146-.988 1.963-1.188v-1.3h2.25v1.3c.683.05 1.283.334 1.8.85.516.517.85 1.1 1 1.75l-2.1.85c-.1-.4-.288-.741-.563-1.025-.275-.283-.687-.425-1.237-.425-.534 0-.934.105-1.2.313-.267.208-.4.504-.4.887 0 .4.212.717.637.95.425.234 1.13.517 2.113.85 1.233.434 2.041.967 2.425 1.6a3.89 3.89 0 0 1 .575 2.05c0 .517-.075.963-.225 1.338-.15.375-.363.7-.638.975s-.6.504-.975.688a6.414 6.414 0 0 1-1.262.45v1.3h-2.25Zm-10.75-7.35c0-1.65.312-3.196.937-4.638a12.073 12.073 0 0 1 2.55-3.775 12.073 12.073 0 0 1 3.775-2.55C9.603.735 11.15.422 12.8.422c1.983 0 3.854.463 5.612 1.388 1.759.925 3.146 2.17 4.163 3.737v-2.3h2.65v6.9h-6.9v-2.65h2.425a9.954 9.954 0 0 0-3.413-3.225 8.948 8.948 0 0 0-4.537-1.2c-1.25 0-2.438.238-3.563.713a9.276 9.276 0 0 0-2.95 1.962 9.368 9.368 0 0 0-2 2.938 8.995 8.995 0 0 0-.737 3.637H.899Z"/></g><defs><clipPath id="a"><path fill="#fff" d="M.6 0h24v24H.6z"/></clipPath></defs></symbol><symbol xmlns="http://www.w3.org/2000/svg" id="grass" fill="none" viewBox="0 0 25 24"><g clip-path="url(#a)"><path fill="currentColor" d="M.896 20.954v-2.65h6.55c-.434-1.466-1.23-2.775-2.388-3.925S2.512 12.446.896 12.03c.383-.083.762-.15 1.137-.2a8.79 8.79 0 0 1 1.163-.075c2.566 0 4.741.892 6.525 2.675 1.783 1.784 2.675 3.959 2.675 6.525H.896Zm13.5 0c0-.8-.08-1.55-.238-2.25-.158-.7-.387-1.391-.688-2.075.85-1.566 1.992-2.77 3.425-3.612 1.434-.842 3-1.263 4.7-1.263.4 0 .788.03 1.163.088.375.058.754.13 1.137.212-1.616.417-2.995 1.205-4.137 2.363-1.142 1.158-1.92 2.454-2.337 3.887h6.474v2.65h-9.5Zm-1.926-6.15a8.442 8.442 0 0 1 .413-3.687 9.293 9.293 0 0 1 1.813-3.125 9.285 9.285 0 0 1 2.9-2.2 8.99 8.99 0 0 1 3.674-.913c-1.066.667-2.05 1.563-2.95 2.688-.9 1.125-1.5 2.287-1.8 3.487-.85.4-1.62.934-2.312 1.6a10.753 10.753 0 0 0-1.738 2.15Zm-1.525-1.85a8.868 8.868 0 0 0-1.087-.962 8.104 8.104 0 0 0-.987-.663c0-.116.012-.295.037-.537.025-.242.038-.42.038-.538 0-1.466-.23-2.85-.688-4.15a12.122 12.122 0 0 0-1.962-3.55 9.779 9.779 0 0 1 3.45 2.4c1 1.067 1.783 2.434 2.35 4.1a8.159 8.159 0 0 0-.75 1.875 14.989 14.989 0 0 0-.4 2.025Z"/></g></symbol><symbol xmlns="http://www.w3.org/2000/svg" id="profile" fill="none" viewBox="0 0 24 24"><g clip-path="url(#a)"><mask id="b" width="24" height="24" x="0" y="0" maskUnits="userSpaceOnUse"><path fill="#D9D9D9" d="M0 0h24v24H0z"/></mask><g mask="url(#b)"><path fill="currentColor" d="M5.325 16.725c.933-.7 1.95-1.238 3.05-1.613a10.57 10.57 0 0 1 3.425-.562c1.183 0 2.325.188 3.425.563 1.1.375 2.117.912 3.05 1.612.583-.767 1.008-1.554 1.275-2.363.267-.808.4-1.662.4-2.562 0-2.233-.8-4.15-2.4-5.75-1.6-1.6-3.517-2.4-5.75-2.4s-4.15.8-5.75 2.4c-1.6 1.6-2.4 3.517-2.4 5.75 0 .9.133 1.754.4 2.563.267.808.692 1.595 1.275 2.362Zm6.477-3.325c-1.151 0-2.123-.395-2.915-1.186-.791-.79-1.187-1.76-1.187-2.912 0-1.151.395-2.123 1.186-2.914.79-.792 1.76-1.188 2.912-1.188 1.151 0 2.123.395 2.915 1.186.791.79 1.187 1.76 1.187 2.912 0 1.151-.395 2.123-1.186 2.915-.79.791-1.76 1.187-2.912 1.187Zm-.002 9.2c-1.467 0-2.859-.286-4.176-.857a10.938 10.938 0 0 1-3.438-2.324 11.161 11.161 0 0 1-2.324-3.444A10.35 10.35 0 0 1 1 11.787c0-1.475.288-2.866.863-4.175a11.204 11.204 0 0 1 2.324-3.43 10.937 10.937 0 0 1 3.437-2.326A10.419 10.419 0 0 1 11.813 1c1.474 0 2.866.288 4.175.863a11.12 11.12 0 0 1 3.425 2.325 11.12 11.12 0 0 1 2.325 3.423c.575 1.307.862 2.703.862 4.189 0 1.467-.286 2.859-.857 4.176a10.937 10.937 0 0 1-2.324 3.437 11.211 11.211 0 0 1-3.43 2.325 10.288 10.288 0 0 1-4.189.862Z"/></g></g></symbol><symbol xmlns="http://www.w3.org/2000/svg" id="star" fill="none" viewBox="0 0 24 24"><path fill="currentColor" d="m5.33 21.516 1.775-7.6-5.9-5.1 7.775-.65 3.025-7.15 3.025 7.15 7.775.65-5.9 5.1 1.775 7.6-6.675-4.025-6.675 4.025Z"/></symbol><symbol xmlns="http://www.w3.org/2000/svg" id="tractor" fill="none" viewBox="0 0 24 24"><path fill="currentColor" d="M3.175 13.6v-3.45H.3L4.325 4.4v3.45H7.2L3.175 13.6Zm3.357 7.2a3.215 3.215 0 0 1-2.357-.973c-.65-.649-.975-1.436-.975-2.363 0-.426.096-.835.288-1.226.191-.392.42-.763.687-1.113L11.05 5.85h-4.8l.6-2.65h11.675l-1.05 4.475h2.7l3.175 4.25-1.125 5.525h-1.45c0 .933-.32 1.725-.962 2.375-.642.65-1.43.975-2.363.975s-1.72-.326-2.362-.977c-.642-.651-.963-1.442-.963-2.373H9.85c0 .933-.323 1.725-.968 2.375a3.187 3.187 0 0 1-2.35.975Zm-.007-2.65a.653.653 0 0 0 .481-.194c.13-.13.194-.29.194-.481a.653.653 0 0 0-.194-.481.653.653 0 0 0-.481-.194.653.653 0 0 0-.481.194.653.653 0 0 0-.194.481c0 .191.065.352.194.481.13.13.29.194.481.194Zm10.925 0a.654.654 0 0 0 .481-.194c.13-.13.194-.29.194-.481a.653.653 0 0 0-.194-.481.653.653 0 0 0-.481-.194.654.654 0 0 0-.481.194.653.653 0 0 0-.194.481c0 .191.065.352.194.481.13.13.29.194.481.194Zm-1.175-5.35h4.275l.05-.125-1.75-2.35h-1.989l-.586 2.475Z"/></symbol><symbol xmlns="http://www.w3.org/2000/svg" id="volt" fill="none" viewBox="0 0 25 24"><path fill="currentColor" d="m7.446 22.564 3.45-7.225-8.425-1.125L16.096.914h2.775l-3.575 7.375 8.475 1.1-13.55 13.175H7.446Z"/></symbol></svg>