<svg width="24" height="24" viewBox="0 0 24 24" fill="none" xmlns="http://www.w3.org/2000/svg">
<path d="M2.61108 20.289V13.889L11.2111 11.714L2.61108 9.53896V3.18896L17.6861 9.56396H17.2111C15.0944 9.56396 13.2819 10.2848 11.7736 11.7265C10.2653 13.1681 9.51108 14.939 9.51108 17.039V17.364L2.61108 20.289ZM17.2111 22.964C15.6444 22.964 14.3028 22.4056 13.1861 21.289C12.0694 20.1723 11.5111 18.8306 11.5111 17.264C11.5111 15.6973 12.0694 14.3556 13.1861 13.239C14.3028 12.1223 15.6444 11.564 17.2111 11.564C18.7778 11.564 20.1194 12.1223 21.2361 13.239C22.3528 14.3556 22.9111 15.6973 22.9111 17.264C22.9111 18.8306 22.3528 20.1723 21.2361 21.289C20.1194 22.4056 18.7778 22.964 17.2111 22.964ZM17.2111 20.389L20.3611 17.239L19.6111 16.489L17.7611 18.339V14.139H16.6611V18.339L14.8111 16.489L14.0611 17.239L17.2111 20.389Z" fill="#060606"/>
</svg>
