<svg width="24" height="24" viewBox="0 0 24 24" fill="none" xmlns="http://www.w3.org/2000/svg">
<path d="M4.65 22.6C3.9 22.6 3.27083 22.3458 2.7625 21.8375C2.25417 21.3292 2 20.7 2 19.95V8.45C1.7 8.22283 1.45833 7.9285 1.275 7.567C1.09167 7.20567 1 6.80833 1 6.375V3.65C1 2.9 1.25417 2.27083 1.7625 1.7625C2.27083 1.25417 2.9 1 3.65 1H19.95C20.7 1 21.3292 1.25417 21.8375 1.7625C22.3458 2.27083 22.6 2.9 22.6 3.65V6.375C22.6 6.80833 22.5083 7.20567 22.325 7.567C22.1417 7.9285 21.9 8.22283 21.6 8.45V19.95C21.6 20.7 21.3458 21.3292 20.8375 21.8375C20.3292 22.3458 19.7 22.6 18.95 22.6H4.65ZM3.625 6.4H19.975V3.65H3.625V6.4ZM8.525 14.475H15.1V11.775H8.525V14.475Z" fill="#060606"/>
</svg>
