<svg width="24" height="24" viewBox="0 0 24 24" fill="none" xmlns="http://www.w3.org/2000/svg">
<path d="M10.5 17.2H13.15V10.8H10.5V17.2ZM11.7955 8.4C12.1485 8.4 12.4458 8.28067 12.6875 8.042C12.9292 7.80317 13.05 7.50733 13.05 7.1545C13.05 6.8015 12.9307 6.50417 12.692 6.2625C12.4532 6.02083 12.1573 5.9 11.8045 5.9C11.4515 5.9 11.1542 6.01933 10.9125 6.258C10.6708 6.49683 10.55 6.79267 10.55 7.1455C10.55 7.4985 10.6693 7.79583 10.908 8.0375C11.1468 8.27917 11.4427 8.4 11.7955 8.4ZM11.8 22.6C10.306 22.6 8.902 22.3165 7.588 21.7495C6.274 21.1825 5.131 20.413 4.159 19.441C3.187 18.469 2.4175 17.326 1.8505 16.012C1.2835 14.698 1 13.294 1 11.8C1 10.3017 1.284 8.89367 1.852 7.576C2.42 6.25817 3.19083 5.11192 4.1645 4.13725C5.13817 3.16242 6.28117 2.39583 7.5935 1.8375C8.90583 1.27917 10.308 1 11.8 1C13.2982 1 14.706 1.27917 16.0235 1.8375C17.3412 2.39583 18.4875 3.1625 19.4625 4.1375C20.4375 5.1125 21.2042 6.259 21.7625 7.577C22.3208 8.89517 22.6 10.3035 22.6 11.802C22.6 13.3007 22.3208 14.7042 21.7625 16.0125C21.2042 17.3208 20.4376 18.4618 19.4628 19.4355C18.4881 20.4092 17.3418 21.18 16.024 21.748C14.7063 22.316 13.2983 22.6 11.8 22.6Z" fill="currentColor"/>
</svg>
