<svg width="34" height="28" viewBox="0 0 34 28" fill="none" xmlns="http://www.w3.org/2000/svg">
<path d="M6.98949 18.6416C5.46979 17.7904 4.61495 16.8446 4.14004 16.2771C2.71532 14.4801 2.24041 12.5885 2.24041 12.5885C2.14543 12.2102 1.95547 11.2644 1.29059 10.3186C1.10063 9.94027 0.815685 9.65653 0.720703 9.56195C1.00565 9.65653 1.38558 9.65653 1.86048 9.75111C2.33539 9.84569 2.62034 9.84569 2.62034 9.84569C3.76012 10.0349 5.08986 9.94027 5.84971 10.0349C6.60957 10.1294 7.55938 10.4132 8.79415 11.5481C8.69917 10.7915 8.58339 10.0835 8.5092 9.75111C8.43502 9.41869 8.39342 9.23232 8.31924 8.8999C8.24505 8.56748 8.31924 8.14326 8.31924 7.85952C8.79415 8.427 9.26906 8.8999 9.64898 9.18363C10.6938 10.1294 11.6436 10.6023 11.9285 10.7915C12.4034 11.0752 12.7834 11.1698 13.0683 11.2644C12.8784 10.9806 12.6884 10.5077 12.4984 9.94027C12.2135 9.08905 11.7386 7.76494 11.6436 5.96793C11.5486 5.11672 11.5486 3.98177 11.6436 2.75223C12.0235 2.94139 12.4035 3.22513 12.8784 3.41429C13.7332 3.88719 14.3981 4.45466 14.968 4.92756C15.0629 4.45466 15.1579 3.88719 15.3479 3.31971C15.7278 2.18476 16.2977 1.23896 16.7726 0.576904C17.0576 1.0498 17.2475 1.42812 17.4375 1.71186C18.1973 2.94139 18.4823 3.31971 18.7672 4.07634C18.9572 4.54924 19.1472 4.92756 19.1472 5.2113C19.4321 5.02214 19.717 4.7384 20.097 4.54924C21.0468 3.88719 21.9016 3.41429 22.7565 2.94139C22.8514 3.50887 22.9464 4.2655 22.9464 5.2113C22.9464 5.68419 22.9464 7.48121 22.1866 9.84569C21.9966 10.5077 21.7117 11.1698 21.3317 12.021C22.1866 11.5481 22.8514 11.1698 23.3263 10.8861C23.9912 10.4132 24.4661 10.1294 25.131 9.56195C25.6059 9.08906 25.9858 8.71074 26.1758 8.427C26.1758 8.99448 26.0808 9.65653 25.9858 10.3186C25.8909 10.9806 25.7959 11.6427 25.6059 12.2102C25.8909 12.021 26.3658 11.7373 27.0306 11.5481C28.3604 11.0752 29.5951 10.9806 30.355 10.9806C31.2098 10.9806 31.5898 10.9806 32.3496 10.8861C32.9195 10.7915 33.3944 10.6969 33.6793 10.6023C33.4894 10.7915 33.2994 11.0752 33.0145 11.4535C32.7295 11.9264 32.6346 12.3048 32.5396 12.3993C31.9697 13.818 31.6847 14.4801 31.4948 15.0476C30.6399 16.9392 29.4052 18.0741 29.1202 18.2633C28.5503 18.8307 27.8855 19.1145 27.5055 19.3982C27.7905 19.3982 28.2654 19.4928 28.8353 19.5874C29.5951 19.682 30.165 19.7765 31.8747 20.0603C32.2546 20.1549 33.0145 20.2494 33.3944 20.344C33.1095 20.7223 32.6345 21.1952 32.0647 21.8573C31.6847 22.2356 30.355 23.5597 28.2654 25.1676C26.7457 26.3025 25.9858 26.87 25.321 27.1537C23.8013 27.7212 22.2815 27.7212 20.7618 27.6266C19.4321 27.5321 18.3873 27.3429 17.6274 27.1537C17.5325 27.2483 17.3425 27.3429 17.0576 27.3429C16.7726 27.3429 16.5826 27.2483 16.4877 27.1537C16.1077 27.2483 15.6328 27.3429 15.0629 27.4375C14.2081 27.5321 12.5289 27.8222 11.0096 27.5154C9.8855 27.2884 8.70212 26.7372 6.80249 25.2239C5.1878 23.8998 3.19023 21.8573 0.910667 18.9253C2.24041 18.6416 3.8551 18.3578 5.65975 18.4524C6.13466 18.547 6.60957 18.547 6.98949 18.6416Z" fill="currentColor"/>
</svg>
