<svg width="24" height="24" viewBox="0 0 24 24" fill="none" xmlns="http://www.w3.org/2000/svg">
<path d="M19.6094 21.5749L13.2594 15.2249C12.7594 15.6082 12.1469 15.9124 11.4219 16.1374C10.6969 16.3624 9.95937 16.4749 9.20937 16.4749C7.22604 16.4749 5.54688 15.7874 4.17188 14.4124C2.79688 13.0374 2.10938 11.3582 2.10938 9.3749C2.10938 7.39157 2.79688 5.7124 4.17188 4.3374C5.54688 2.9624 7.22604 2.2749 9.20937 2.2749C11.1927 2.2749 12.8719 2.9624 14.2469 4.3374C15.6219 5.7124 16.3094 7.39157 16.3094 9.3749C16.3094 10.1249 16.2052 10.8416 15.9969 11.5249C15.7885 12.2082 15.4844 12.8166 15.0844 13.3499L21.4594 19.7249L19.6094 21.5749ZM9.20937 13.8249C10.4594 13.8249 11.5135 13.3957 12.3719 12.5374C13.2302 11.6791 13.6594 10.6249 13.6594 9.3749C13.6594 8.1249 13.2302 7.07074 12.3719 6.2124C11.5135 5.35407 10.4594 4.9249 9.20937 4.9249C7.95937 4.9249 6.90521 5.35407 6.04688 6.2124C5.18854 7.07074 4.75938 8.1249 4.75938 9.3749C4.75938 10.6249 5.18854 11.6791 6.04688 12.5374C6.90521 13.3957 7.95937 13.8249 9.20937 13.8249Z" fill="currentColor"/>
</svg>
