<svg width="16" height="16" viewBox="0 0 16 16" fill="none" xmlns="http://www.w3.org/2000/svg">
<g clip-path="url(#clip0_282_4386)">
<mask id="mask0_282_4386" style="mask-type:alpha" maskUnits="userSpaceOnUse" x="0" y="0" width="24" height="24">
<rect width="24" height="24" fill="#D9D9D9"/>
</mask>
<g mask="url(#mask0_282_4386)">
<path d="M6.14401 12.3304C5.65812 12.3304 5.24223 12.1574 4.89634 11.8114C4.55034 11.4655 4.37734 11.0496 4.37734 10.5637V2.43036C4.37734 1.94459 4.55034 1.5287 4.89634 1.1827C5.24223 0.836697 5.65812 0.663696 6.14401 0.663696H12.2773C12.7631 0.663696 13.179 0.836697 13.525 1.1827C13.871 1.5287 14.044 1.94459 14.044 2.43036V10.5637C14.044 11.0496 13.871 11.4655 13.525 11.8114C13.179 12.1574 12.7631 12.3304 12.2773 12.3304H6.14401ZM3.04401 15.4304C2.55812 15.4304 2.14223 15.2574 1.79634 14.9114C1.45034 14.5654 1.27734 14.1495 1.27734 13.6637V3.7637H3.04401V13.6637H10.944V15.4304H3.04401Z" fill="#FCFDFC"/>
</g>
</g>
<defs>
<clipPath id="clip0_282_4386">
<rect width="16" height="16" fill="white"/>
</clipPath>
</defs>
</svg>
