<svg width="65" height="58" viewBox="0 0 65 58" fill="none" xmlns="http://www.w3.org/2000/svg">
<path d="M63.8046 47.4529L38.6765 4.16166C38.0486 3.10104 37.1522 2.22163 36.0761 1.61059C35 0.999551 33.7817 0.678101 32.5418 0.678101C31.3019 0.678101 30.0835 0.999551 29.0075 1.61059C27.9314 2.22163 27.035 3.10104 26.407 4.16166L1.27902 47.4529C0.674845 48.4788 0.356445 49.6455 0.356445 50.8337C0.356445 52.0218 0.674845 53.1885 1.27902 54.2144C1.8989 55.2814 2.7938 56.1656 3.87188 56.7763C4.94996 57.3869 6.1724 57.702 7.41376 57.6892H57.6698C58.9102 57.701 60.1314 57.3854 61.2084 56.7748C62.2854 56.1642 63.1794 55.2806 63.7988 54.2144C64.4039 53.189 64.7232 52.0225 64.7243 50.8344C64.7253 49.6463 64.4079 48.4793 63.8046 47.4529ZM59.8191 51.9311C59.6001 52.3018 59.2856 52.6081 58.9079 52.8184C58.5302 53.0288 58.1029 53.1358 57.6698 53.1283H7.41376C6.98067 53.1358 6.55338 53.0288 6.17569 52.8184C5.79801 52.6081 5.48351 52.3018 5.26445 51.9311C5.06602 51.5978 4.96135 51.2179 4.96135 50.8308C4.96135 50.4437 5.06602 50.0638 5.26445 49.7305L30.3925 6.43924C30.616 6.0703 30.9319 5.76502 31.3095 5.55307C31.6872 5.34113 32.1137 5.22974 32.5475 5.22974C32.9814 5.22974 33.4079 5.34113 33.7855 5.55307C34.1632 5.76502 34.4791 6.0703 34.7026 6.43924L59.8306 49.7305C60.0273 50.0648 60.13 50.4453 60.128 50.8324C60.1259 51.2194 60.0193 51.5989 59.8191 51.9311ZM30.2431 34.8848V23.4827C30.2431 22.8778 30.4852 22.2978 30.9163 21.8701C31.3474 21.4425 31.9321 21.2022 32.5418 21.2022C33.1514 21.2022 33.7361 21.4425 34.1672 21.8701C34.5983 22.2978 34.8405 22.8778 34.8405 23.4827V34.8848C34.8405 35.4897 34.5983 36.0697 34.1672 36.4974C33.7361 36.925 33.1514 37.1653 32.5418 37.1653C31.9321 37.1653 31.3474 36.925 30.9163 36.4974C30.4852 36.0697 30.2431 35.4897 30.2431 34.8848ZM35.9899 45.1468C35.9899 45.8234 35.7877 46.4847 35.4088 47.0472C35.0299 47.6098 34.4914 48.0482 33.8613 48.3071C33.2313 48.566 32.538 48.6337 31.8691 48.5017C31.2002 48.3698 30.5858 48.044 30.1036 47.5656C29.6214 47.0872 29.293 46.4777 29.1599 45.8141C29.0269 45.1506 29.0952 44.4628 29.3562 43.8378C29.6171 43.2127 30.0591 42.6785 30.6261 42.3026C31.1932 41.9268 31.8598 41.7262 32.5418 41.7262C33.4563 41.7262 34.3333 42.0865 34.98 42.728C35.6266 43.3695 35.9899 44.2396 35.9899 45.1468Z" fill="black"/>
</svg>
