<svg width="25" height="24" viewBox="0 0 25 24" fill="none" xmlns="http://www.w3.org/2000/svg">
<path d="M17.6873 21.0999C16.5463 21.0999 15.5819 20.706 14.7941 19.9182C14.0062 19.1303 13.6123 18.1659 13.6123 17.0249C13.6123 15.8839 14.0062 14.9195 14.7941 14.1317C15.5819 13.3438 16.5463 12.9499 17.6873 12.9499C18.8283 12.9499 19.7927 13.3438 20.5806 14.1317C21.3684 14.9195 21.7623 15.8839 21.7623 17.0249C21.7623 18.1659 21.3684 19.1303 20.5806 19.9182C19.7927 20.706 18.8283 21.0999 17.6873 21.0999ZM3.7373 18.3499V15.6999H11.6373V18.3499H3.7373ZM7.3123 11.0499C6.1713 11.0499 5.20689 10.656 4.41905 9.86815C3.63122 9.08032 3.2373 8.1159 3.2373 6.9749C3.2373 5.8339 3.63122 4.86949 4.41905 4.08165C5.20689 3.29382 6.1713 2.8999 7.3123 2.8999C8.45331 2.8999 9.41772 3.29382 10.2056 4.08165C10.9934 4.86949 11.3873 5.8339 11.3873 6.9749C11.3873 8.1159 10.9934 9.08032 10.2056 9.86815C9.41772 10.656 8.45331 11.0499 7.3123 11.0499ZM13.3873 8.2999V5.6499H21.2623V8.2999H13.3873Z" fill="#FCFDFC"/>
</svg>
