<svg width="24" height="19" viewBox="0 0 24 19" fill="none" xmlns="http://www.w3.org/2000/svg">
<path d="M0.495605 18.9544V16.3044H7.04561C6.61227 14.8378 5.81644 13.5294 4.65811 12.3794C3.49977 11.2294 2.11227 10.4461 0.495605 10.0294C0.878939 9.94611 1.25811 9.87944 1.63311 9.82944C2.00811 9.77944 2.39561 9.75444 2.79561 9.75444C5.36227 9.75444 7.53727 10.6461 9.32061 12.4294C11.1039 14.2128 11.9956 16.3878 11.9956 18.9544H0.495605ZM13.9956 18.9544C13.9956 18.1544 13.9164 17.4044 13.7581 16.7044C13.5998 16.0044 13.3706 15.3128 13.0706 14.6294C13.9206 13.0628 15.0623 11.8586 16.4956 11.0169C17.9289 10.1753 19.4956 9.75444 21.1956 9.75444C21.5956 9.75444 21.9831 9.78361 22.3581 9.84194C22.7331 9.90028 23.1123 9.97111 23.4956 10.0544C21.8789 10.4711 20.4998 11.2586 19.3581 12.4169C18.2164 13.5753 17.4373 14.8711 17.0206 16.3044H23.4956V18.9544H13.9956ZM12.0706 12.8044C11.9373 11.5211 12.0748 10.2919 12.4831 9.11694C12.8914 7.94194 13.4956 6.90028 14.2956 5.99194C15.0956 5.08361 16.0623 4.35028 17.1956 3.79194C18.3289 3.23361 19.5539 2.92944 20.8706 2.87944C19.8039 3.54611 18.8206 4.44194 17.9206 5.56694C17.0206 6.69194 16.4206 7.85444 16.1206 9.05444C15.2706 9.45444 14.4998 9.98778 13.8081 10.6544C13.1164 11.3211 12.5373 12.0378 12.0706 12.8044ZM10.5456 10.9544C10.2289 10.6211 9.86644 10.3003 9.45811 9.99194C9.04977 9.68361 8.72061 9.46278 8.47061 9.32944C8.47061 9.21278 8.48311 9.03361 8.50811 8.79194C8.5331 8.55028 8.54561 8.37111 8.54561 8.25444C8.54561 6.78778 8.31644 5.40444 7.85811 4.10444C7.39977 2.80444 6.74561 1.62111 5.89561 0.554443C7.19561 1.08778 8.34561 1.88778 9.34561 2.95444C10.3456 4.02111 11.1289 5.38778 11.6956 7.05444C11.3789 7.62111 11.1289 8.24611 10.9456 8.92944C10.7623 9.61278 10.6289 10.2878 10.5456 10.9544Z" fill="#060606"/>
</svg>
