<svg width="0" height="0"><symbol xmlns="http://www.w3.org/2000/svg" id="arrow" fill="none" viewBox="0 0 24 24"><path stroke="#060606" stroke-width="3" d="M11.98 4.707 4.727 12m0 0 7.253 7.293M4.727 12h14.546"/></symbol><symbol xmlns="http://www.w3.org/2000/svg" id="back-arrow" fill="none" viewBox="0 0 24 24"><path fill="#060606" d="m8 18.45-6.5-6.5L8 5.45l1.85 1.925-3.25 3.25h15.9v2.65H6.6l3.25 3.25L8 18.45Z"/></symbol><symbol xmlns="http://www.w3.org/2000/svg" id="box" fill="none" viewBox="0 0 24 24"><path fill="#060606" d="M4.65 22.6c-.75 0-1.38-.254-1.888-.763C2.255 21.33 2 20.7 2 19.95V8.45a2.596 2.596 0 0 1-1-2.075V3.65c0-.75.254-1.38.762-1.887C2.272 1.253 2.9 1 3.65 1h16.3c.75 0 1.38.254 1.887.762.509.509.763 1.138.763 1.888v2.725a2.597 2.597 0 0 1-1 2.075v11.5c0 .75-.254 1.38-.763 1.887-.508.509-1.137.763-1.887.763H4.65ZM3.625 6.4h16.35V3.65H3.625V6.4Zm4.9 8.075H15.1v-2.7H8.525v2.7Z"/></symbol><symbol xmlns="http://www.w3.org/2000/svg" id="cart" fill="none" viewBox="0 0 24 24"><g clip-path="url(#a)"><mask id="b" width="24" height="24" x="0" y="0" maskUnits="userSpaceOnUse"><path fill="#D9D9D9" d="M0 0h24v24H0z"/></mask><g mask="url(#b)"><path fill="currentColor" d="M7.3 21c-.633 0-1.175-.23-1.625-.688A2.257 2.257 0 0 1 5 18.675V9.4L3.175 5H1V3h3.525l1.65 4H20.95c.383 0 .675.158.875.475.2.317.208.642.025.975L19 14.025c.85.133 1.563.525 2.137 1.175A3.36 3.36 0 0 1 22 17.5c0 .967-.337 1.792-1.012 2.475S19.492 21 18.524 21c-.983 0-1.813-.342-2.487-1.025a3.393 3.393 0 0 1-1.013-2.475c0-.333.042-.642.125-.925.083-.283.2-.558.35-.825l-3.275-.3-3 4.5a2.262 2.262 0 0 1-.838.775A2.267 2.267 0 0 1 7.3 21Zm.025-2.025c.033 0 .108-.042.225-.125l2.425-3.6c-.817-.083-1.458-.28-1.925-.588-.467-.308-.817-.629-1.05-.962v5c0 .083.033.15.1.2.067.05.142.075.225.075ZM18.5 19c.433 0 .792-.146 1.075-.438.283-.291.425-.645.425-1.062 0-.433-.142-.792-.425-1.075-.283-.283-.642-.425-1.075-.425-.417 0-.77.142-1.063.425-.291.283-.437.642-.437 1.075 0 .417.146.77.438 1.063.291.291.645.437 1.062.437Z"/></g></g><defs><clipPath id="a"><path fill="#fff" d="M0 0h24v24H0z"/></clipPath></defs></symbol><symbol xmlns="http://www.w3.org/2000/svg" id="check" fill="none" viewBox="0 0 24 24"><rect width="18" height="18" x="3" y="3" fill="#060606" rx="3"/><path fill="#FCFDFC" d="m17.015 9.911-5.726 5.73a1 1 0 0 1-1.414 0l-2.926-2.93a1 1 0 0 1 0-1.414l.148-.148a1 1 0 0 1 1.414 0l1.364 1.36a1 1 0 0 0 1.413 0l4.165-4.16a1 1 0 0 1 1.414 0l.148.148a1 1 0 0 1 0 1.414Z"/></symbol><symbol xmlns="http://www.w3.org/2000/svg" id="cross" fill="none" viewBox="0 0 24 24"><path fill="#060606" d="m6.3 19.625-1.85-1.9 5.675-5.7-5.675-5.75 1.85-1.9 5.725 5.75 5.675-5.75 1.85 1.9-5.675 5.75 5.675 5.7-1.85 1.9-5.675-5.75-5.725 5.75Z"/></symbol><symbol xmlns="http://www.w3.org/2000/svg" id="download" fill="none" viewBox="0 0 24 24"><g clip-path="url(#a)" mask="url(#b)"><path fill="#060606" d="m11.975 16.15-6-6L7.85 8.275l2.8 2.8V3.2h2.65v7.875l2.8-2.8 1.875 1.875-6 6ZM5.85 20.8c-.729 0-1.353-.26-1.872-.779A2.551 2.551 0 0 1 3.2 18.15v-3h2.65v3h12.3v-3h2.65v3a2.55 2.55 0 0 1-.779 1.875 2.558 2.558 0 0 1-1.871.775H5.85Z"/></g></symbol><symbol xmlns="http://www.w3.org/2000/svg" id="grass" fill="none" viewBox="0 0 24 19"><path fill="#060606" d="M.496 18.954v-2.65h6.55c-.434-1.466-1.23-2.775-2.388-3.925S2.112 10.446.496 10.03c.383-.083.762-.15 1.137-.2a8.79 8.79 0 0 1 1.163-.075c2.566 0 4.741.892 6.525 2.675 1.783 1.784 2.675 3.959 2.675 6.525H.496Zm13.5 0c0-.8-.08-1.55-.238-2.25-.158-.7-.387-1.391-.687-2.075.85-1.566 1.991-2.77 3.425-3.612 1.433-.842 3-1.263 4.7-1.263.4 0 .787.03 1.162.088.375.058.754.13 1.138.212-1.617.417-2.996 1.205-4.138 2.363s-1.92 2.454-2.337 3.887h6.475v2.65h-9.5Zm-1.925-6.15a8.442 8.442 0 0 1 .412-3.687 9.293 9.293 0 0 1 1.813-3.125 9.285 9.285 0 0 1 2.9-2.2 8.99 8.99 0 0 1 3.675-.913c-1.067.667-2.05 1.563-2.95 2.688-.9 1.125-1.5 2.287-1.8 3.487a8.6 8.6 0 0 0-2.313 1.6 10.753 10.753 0 0 0-1.737 2.15Zm-1.525-1.85a8.862 8.862 0 0 0-1.088-.962 8.094 8.094 0 0 0-.987-.663c0-.116.012-.295.037-.537a5.78 5.78 0 0 0 .038-.538c0-1.466-.23-2.85-.688-4.15A12.122 12.122 0 0 0 5.896.554a9.779 9.779 0 0 1 3.45 2.4c1 1.067 1.783 2.434 2.35 4.1a8.158 8.158 0 0 0-.75 1.875 14.986 14.986 0 0 0-.4 2.025Z"/></symbol><symbol xmlns="http://www.w3.org/2000/svg" id="info" fill="none" viewBox="0 0 24 24"><path fill="currentColor" d="M10.5 17.2h2.65v-6.4H10.5v6.4Zm1.296-8.8c.353 0 .65-.12.892-.358.241-.239.362-.535.362-.888s-.12-.65-.358-.891a1.198 1.198 0 0 0-.887-.363c-.354 0-.65.12-.893.358a1.198 1.198 0 0 0-.362.888c0 .353.12.65.358.891.239.242.535.363.888.363Zm.004 14.2c-1.494 0-2.898-.284-4.212-.85a10.906 10.906 0 0 1-3.429-2.309 10.906 10.906 0 0 1-2.308-3.429A10.517 10.517 0 0 1 1 11.8c0-1.498.284-2.906.852-4.224a10.937 10.937 0 0 1 2.313-3.439 10.73 10.73 0 0 1 3.428-2.3A10.632 10.632 0 0 1 11.8 1c1.498 0 2.906.28 4.223.837a10.727 10.727 0 0 1 3.44 2.3 10.726 10.726 0 0 1 2.3 3.44 10.72 10.72 0 0 1 .837 4.225c0 1.499-.28 2.902-.838 4.21a10.748 10.748 0 0 1-2.3 3.424 10.937 10.937 0 0 1-3.438 2.312 10.556 10.556 0 0 1-4.224.852Z"/></symbol><symbol xmlns="http://www.w3.org/2000/svg" id="logo" fill="none" viewBox="0 0 34 28"><path fill="currentColor" d="M6.99 18.642a9.867 9.867 0 0 1-2.85-2.365c-1.425-1.797-1.9-3.689-1.9-3.689-.095-.378-.285-1.324-.95-2.27a3.014 3.014 0 0 0-.57-.756c.286.095.666.095 1.14.19.475.094.76.094.76.094 1.14.189 2.47.094 3.23.189.76.094 1.71.378 2.944 1.513a23.32 23.32 0 0 0-.285-1.797L8.32 8.9c-.074-.333 0-.757 0-1.04.475.567.95 1.04 1.33 1.324 1.045.945 1.995 1.418 2.28 1.607.474.284.854.379 1.14.473-.19-.283-.38-.756-.57-1.324-.286-.85-.76-2.175-.855-3.972-.095-.851-.095-1.986 0-3.216.38.19.76.473 1.234.662.855.473 1.52 1.04 2.09 1.514.095-.473.19-1.04.38-1.608.38-1.135.95-2.081 1.425-2.743.285.473.474.851.665 1.135.76 1.23 1.044 1.608 1.33 2.364.19.473.38.852.38 1.135.284-.189.569-.473.949-.662.95-.662 1.805-1.135 2.66-1.608.094.568.19 1.325.19 2.27 0 .473 0 2.27-.76 4.635-.19.662-.475 1.324-.855 2.175.855-.473 1.52-.851 1.994-1.135.665-.473 1.14-.757 1.805-1.324.475-.473.855-.851 1.045-1.135 0 .567-.095 1.23-.19 1.892-.095.662-.19 1.324-.38 1.891.285-.189.76-.473 1.425-.662a10.103 10.103 0 0 1 3.324-.567c.855 0 1.235 0 1.995-.095.57-.095 1.044-.19 1.33-.284-.19.19-.38.473-.666.851-.285.473-.38.852-.474.946-.57 1.419-.855 2.081-1.045 2.649-.855 1.891-2.09 3.026-2.375 3.215-.57.568-1.235.851-1.614 1.135.285 0 .76.095 1.33.19.76.094 1.329.188 3.039.472.38.095 1.14.19 1.52.284-.286.378-.76.851-1.33 1.513-.38.379-1.71 1.703-3.8 3.31-1.52 1.135-2.28 1.703-2.944 1.987-1.52.567-3.04.567-4.56.473a18.467 18.467 0 0 1-3.134-.473c-.095.094-.284.189-.57.189-.284 0-.474-.095-.57-.19-.38.095-.854.19-1.424.285-.855.094-2.534.384-4.053.077-1.124-.227-2.308-.778-4.208-2.291C5.188 23.9 3.19 21.857.911 18.925c1.33-.283 2.944-.567 4.749-.473.475.095.95.095 1.33.19Z"/></symbol><symbol xmlns="http://www.w3.org/2000/svg" id="menu" fill="none" viewBox="0 0 24 24"><path fill="currentColor" d="M2.492 18.145v-2.65h19.6v2.65h-19.6Zm0-5.15v-2.65h19.6v2.65h-19.6Zm0-5.15v-2.65h19.6v2.65h-19.6Z"/></symbol><symbol xmlns="http://www.w3.org/2000/svg" id="plus-menu" fill="none" viewBox="0 0 24 24"><path fill="#060606" d="M10.991 13.636H4.516v-2.65h6.475V4.511h2.65v6.475h6.475v2.65h-6.475v6.475h-2.65v-6.475Z"/></symbol><symbol xmlns="http://www.w3.org/2000/svg" id="share" fill="none" viewBox="0 0 24 24"><path fill="#060606" d="M2.611 20.289v-6.4l8.6-2.175-8.6-2.175v-6.35l15.075 6.375h-.475c-2.117 0-3.93.72-5.437 2.162-1.509 1.442-2.263 3.213-2.263 5.313v.325l-6.9 2.925Zm14.6 2.675c-1.567 0-2.908-.558-4.025-1.675-1.117-1.117-1.675-2.458-1.675-4.025 0-1.567.558-2.908 1.675-4.025 1.117-1.117 2.458-1.675 4.025-1.675 1.567 0 2.908.558 4.025 1.675 1.117 1.117 1.675 2.458 1.675 4.025 0 1.567-.558 2.908-1.675 4.025-1.117 1.117-2.458 1.675-4.025 1.675Zm0-2.575 3.15-3.15-.75-.75-1.85 1.85v-4.2h-1.1v4.2l-1.85-1.85-.75.75 3.15 3.15Z"/></symbol><symbol xmlns="http://www.w3.org/2000/svg" id="zoom" fill="none" viewBox="0 0 24 24"><path fill="currentColor" d="m19.61 21.575-6.35-6.35c-.5.383-1.113.687-1.838.912a7.424 7.424 0 0 1-2.213.338c-1.983 0-3.662-.688-5.037-2.063-1.375-1.375-2.063-3.054-2.063-5.037s.688-3.663 2.063-5.038c1.375-1.375 3.054-2.062 5.037-2.062 1.984 0 3.663.687 5.038 2.062 1.375 1.375 2.062 3.055 2.062 5.038 0 .75-.104 1.467-.312 2.15a5.863 5.863 0 0 1-.913 1.825l6.375 6.375-1.85 1.85Zm-10.4-7.75c1.25 0 2.303-.43 3.162-1.288.858-.858 1.287-1.912 1.287-3.162s-.429-2.304-1.287-3.163c-.858-.858-1.913-1.287-3.163-1.287-1.25 0-2.304.43-3.162 1.287-.858.859-1.288 1.913-1.288 3.163 0 1.25.43 2.304 1.288 3.162.858.859 1.912 1.288 3.162 1.288Z"/></symbol></svg>