<svg width="25" height="24" viewBox="0 0 25 24" fill="none" xmlns="http://www.w3.org/2000/svg">
<g clip-path="url(#clip0_1118_28809)">
<path d="M12.7988 24.2225C10.7154 24.2225 8.81961 23.7475 7.11128 22.7975C5.40295 21.8475 4.04045 20.6142 3.02378 19.0975V21.3975H0.373779V14.4975H7.27378V17.1475H4.84878C5.66545 18.4475 6.76545 19.51 8.14878 20.335C9.53211 21.16 11.0821 21.5725 12.7988 21.5725C14.0488 21.5725 15.2363 21.335 16.3613 20.86C17.4863 20.385 18.4696 19.7308 19.3113 18.8975C20.1529 18.0642 20.8196 17.085 21.3113 15.96C21.8029 14.835 22.0488 13.6225 22.0488 12.3225H24.6988C24.6988 13.9892 24.3821 15.5475 23.7488 16.9975C23.1154 18.4475 22.2613 19.7058 21.1863 20.7725C20.1113 21.8392 18.8529 22.6808 17.4113 23.2975C15.9696 23.9142 14.4321 24.2225 12.7988 24.2225ZM11.6488 19.6725V18.3225C10.7988 18.1225 10.1113 17.7392 9.58628 17.1725C9.06128 16.6058 8.69878 15.8725 8.49878 14.9725L10.6488 14.1725C10.7988 14.9058 11.0821 15.4475 11.4988 15.7975C11.9154 16.1475 12.3988 16.3225 12.9488 16.3225C13.4821 16.3225 13.9154 16.21 14.2488 15.985C14.5821 15.76 14.7488 15.4058 14.7488 14.9225C14.7488 14.4725 14.5279 14.1058 14.0863 13.8225C13.6446 13.5392 12.8988 13.2058 11.8488 12.8225C10.8988 12.4892 10.1863 12.0558 9.71128 11.5225C9.23628 10.9892 8.99878 10.3058 8.99878 9.47249C8.99878 8.72249 9.24461 8.05165 9.73628 7.45999C10.2279 6.86832 10.8821 6.47249 11.6988 6.27249V4.97249H13.9488V6.27249C14.6321 6.32249 15.2321 6.60582 15.7488 7.12249C16.2654 7.63915 16.5988 8.22249 16.7488 8.87249L14.6488 9.72249C14.5488 9.32249 14.3613 8.98082 14.0863 8.69749C13.8113 8.41415 13.3988 8.27249 12.8488 8.27249C12.3154 8.27249 11.9154 8.37665 11.6488 8.58499C11.3821 8.79332 11.2488 9.08915 11.2488 9.47249C11.2488 9.87249 11.4613 10.1892 11.8863 10.4225C12.3113 10.6558 13.0154 10.9392 13.9988 11.2725C15.2321 11.7058 16.0404 12.2392 16.4238 12.8725C16.8071 13.5058 16.9988 14.1892 16.9988 14.9225C16.9988 15.4392 16.9238 15.885 16.7738 16.26C16.6238 16.635 16.4113 16.96 16.1363 17.235C15.8613 17.51 15.5363 17.7392 15.1613 17.9225C14.7863 18.1058 14.3654 18.2558 13.8988 18.3725V19.6725H11.6488ZM0.898779 12.3225C0.898779 10.6725 1.21128 9.12665 1.83628 7.68499C2.46128 6.24332 3.31128 4.98499 4.38628 3.90999C5.46128 2.83499 6.71961 1.98499 8.16128 1.35999C9.60295 0.734985 11.1488 0.422485 12.7988 0.422485C14.7821 0.422485 16.6529 0.884985 18.4113 1.80999C20.1696 2.73499 21.5571 3.98082 22.5738 5.54749V3.24749H25.2238V10.1475H18.3238V7.49749H20.7488C19.8654 6.14749 18.7279 5.07249 17.3363 4.27249C15.9446 3.47249 14.4321 3.07249 12.7988 3.07249C11.5488 3.07249 10.3613 3.30999 9.23628 3.78499C8.11128 4.25999 7.12795 4.91415 6.28628 5.74749C5.44461 6.58082 4.77795 7.55999 4.28628 8.68499C3.79461 9.80999 3.54878 11.0225 3.54878 12.3225H0.898779Z" fill="currentColor"/>
</g>
<defs>
<clipPath id="clip0_1118_28809">
<rect width="24" height="24" fill="white" transform="translate(0.600098)"/>
</clipPath>
</defs>
</svg>
