<svg width="25" height="24" viewBox="0 0 25 24" fill="none" xmlns="http://www.w3.org/2000/svg">
<g clip-path="url(#clip0_1118_2956)">
<path d="M0.895508 20.9544V18.3044H7.44551C7.01217 16.8378 6.21634 15.5294 5.05801 14.3794C3.89967 13.2294 2.51217 12.4461 0.895508 12.0294C1.27884 11.9461 1.65801 11.8794 2.03301 11.8294C2.40801 11.7794 2.79551 11.7544 3.19551 11.7544C5.76217 11.7544 7.93717 12.6461 9.72051 14.4294C11.5038 16.2128 12.3955 18.3878 12.3955 20.9544H0.895508ZM14.3955 20.9544C14.3955 20.1544 14.3163 19.4044 14.158 18.7044C13.9997 18.0044 13.7705 17.3128 13.4705 16.6294C14.3205 15.0628 15.4622 13.8586 16.8955 13.0169C18.3288 12.1753 19.8955 11.7544 21.5955 11.7544C21.9955 11.7544 22.383 11.7836 22.758 11.8419C23.133 11.9003 23.5122 11.9711 23.8955 12.0544C22.2788 12.4711 20.8997 13.2586 19.758 14.4169C18.6163 15.5753 17.8372 16.8711 17.4205 18.3044H23.8955V20.9544H14.3955ZM12.4705 14.8044C12.3372 13.5211 12.4747 12.2919 12.883 11.1169C13.2913 9.94194 13.8955 8.90028 14.6955 7.99194C15.4955 7.08361 16.4622 6.35028 17.5955 5.79194C18.7288 5.23361 19.9538 4.92944 21.2705 4.87944C20.2038 5.54611 19.2205 6.44194 18.3205 7.56694C17.4205 8.69194 16.8205 9.85444 16.5205 11.0544C15.6705 11.4544 14.8997 11.9878 14.208 12.6544C13.5163 13.3211 12.9372 14.0378 12.4705 14.8044ZM10.9455 12.9544C10.6288 12.6211 10.2663 12.3003 9.85801 11.9919C9.44967 11.6836 9.12051 11.4628 8.87051 11.3294C8.87051 11.2128 8.88301 11.0336 8.90801 10.7919C8.93301 10.5503 8.94551 10.3711 8.94551 10.2544C8.94551 8.78778 8.71634 7.40444 8.25801 6.10444C7.79967 4.80444 7.14551 3.62111 6.29551 2.55444C7.59551 3.08778 8.74551 3.88778 9.74551 4.95444C10.7455 6.02111 11.5288 7.38778 12.0955 9.05444C11.7788 9.62111 11.5288 10.2461 11.3455 10.9294C11.1622 11.6128 11.0288 12.2878 10.9455 12.9544Z" fill="currentColor"/>
</g>
<defs>
<clipPath id="clip0_1118_2956">
<rect width="24" height="24" fill="white" transform="translate(0.399902)"/>
</clipPath>
</defs>
</svg>
