<svg width="24" height="24" viewBox="0 0 24 24" fill="none" xmlns="http://www.w3.org/2000/svg">
<g clip-path="url(#clip0_1056_30913)">
<mask id="mask0_1056_30913" style="mask-type:alpha" maskUnits="userSpaceOnUse" x="0" y="0" width="24" height="24">
<rect width="24" height="24" fill="#D9D9D9"/>
</mask>
<g mask="url(#mask0_1056_30913)">
<path d="M5.325 16.725C6.25833 16.025 7.275 15.4875 8.375 15.1125C9.475 14.7375 10.6167 14.55 11.8 14.55C12.9833 14.55 14.125 14.7375 15.225 15.1125C16.325 15.4875 17.3417 16.025 18.275 16.725C18.8583 15.9583 19.2833 15.1708 19.55 14.3625C19.8167 13.5542 19.95 12.7 19.95 11.8C19.95 9.56667 19.15 7.65 17.55 6.05C15.95 4.45 14.0333 3.65 11.8 3.65C9.56667 3.65 7.65 4.45 6.05 6.05C4.45 7.65 3.65 9.56667 3.65 11.8C3.65 12.7 3.78333 13.5542 4.05 14.3625C4.31667 15.1708 4.74167 15.9583 5.325 16.725ZM11.802 13.4C10.6507 13.4 9.67917 13.0048 8.8875 12.2145C8.09583 11.4242 7.7 10.4533 7.7 9.302C7.7 8.15067 8.09517 7.17917 8.8855 6.3875C9.67583 5.59583 10.6467 5.2 11.798 5.2C12.9493 5.2 13.9208 5.59517 14.7125 6.3855C15.5042 7.17583 15.9 8.14667 15.9 9.298C15.9 10.4493 15.5048 11.4208 14.7145 12.2125C13.9242 13.0042 12.9533 13.4 11.802 13.4ZM11.8 22.6C10.3333 22.6 8.94133 22.3145 7.624 21.7435C6.30683 21.1723 5.161 20.3973 4.1865 19.4185C3.21217 18.4395 2.4375 17.2917 1.8625 15.975C1.2875 14.6583 1 13.2625 1 11.7875C1 10.3125 1.2875 8.92083 1.8625 7.6125C2.4375 6.30417 3.21217 5.1605 4.1865 4.1815C5.161 3.20267 6.30683 2.42767 7.624 1.8565C8.94133 1.2855 10.3375 1 11.8125 1C13.2875 1 14.6792 1.2875 15.9875 1.8625C17.2958 2.4375 18.4375 3.2125 19.4125 4.1875C20.3875 5.1625 21.1625 6.3035 21.7375 7.6105C22.3125 8.9175 22.6 10.314 22.6 11.8C22.6 13.2667 22.3145 14.6587 21.7435 15.976C21.1723 17.2932 20.3973 18.439 19.4185 19.4135C18.4395 20.3878 17.2965 21.1625 15.9895 21.7375C14.6825 22.3125 13.286 22.6 11.8 22.6Z" fill="currentColor"/>
</g>
</g>
<defs>
<clipPath id="clip0_1056_30913">
<rect width="24" height="24" fill="currentColor"/>
</clipPath>
</defs>
</svg>
