<svg width="24" height="24" viewBox="0 0 24 24" fill="none" xmlns="http://www.w3.org/2000/svg">
<path d="M3.17505 13.6V10.15H0.300049L4.32505 4.39995V7.84995H7.20005L3.17505 13.6ZM6.5323 20.8C5.6108 20.8 4.82505 20.4756 4.17505 19.827C3.52505 19.1785 3.20005 18.3909 3.20005 17.4642C3.20005 17.038 3.29588 16.6291 3.48755 16.2375C3.67922 15.8458 3.90838 15.475 4.17505 15.125L11.05 5.84995H6.25005L6.85005 3.19995H18.525L17.475 7.67495H20.175L23.35 11.925L22.225 17.45H20.775C20.775 18.3833 20.4542 19.175 19.8125 19.825C19.1709 20.475 18.3834 20.8 17.45 20.8C16.5167 20.8 15.7292 20.4743 15.0875 19.823C14.4459 19.1715 14.125 18.3805 14.125 17.45H9.85005C9.85005 18.3833 9.52747 19.175 8.8823 19.825C8.2373 20.475 7.45397 20.8 6.5323 20.8ZM6.52505 18.15C6.71638 18.15 6.87672 18.0853 7.00605 17.956C7.13538 17.8266 7.20005 17.6663 7.20005 17.475C7.20005 17.2836 7.13538 17.1233 7.00605 16.994C6.87672 16.8646 6.71638 16.8 6.52505 16.8C6.33372 16.8 6.17338 16.8646 6.04405 16.994C5.91472 17.1233 5.85005 17.2836 5.85005 17.475C5.85005 17.6663 5.91472 17.8266 6.04405 17.956C6.17338 18.0853 6.33372 18.15 6.52505 18.15ZM17.45 18.15C17.6412 18.15 17.8015 18.0853 17.931 17.956C18.0604 17.8266 18.125 17.6663 18.125 17.475C18.125 17.2836 18.0604 17.1233 17.931 16.994C17.8015 16.8646 17.6412 16.8 17.45 16.8C17.2589 16.8 17.0985 16.8646 16.969 16.994C16.8397 17.1233 16.775 17.2836 16.775 17.475C16.775 17.6663 16.8397 17.8266 16.969 17.956C17.0985 18.0853 17.2589 18.15 17.45 18.15ZM16.275 12.8H20.55L20.6 12.675L18.85 10.325H16.8613L16.275 12.8Z" fill="currentColor"/>
</svg>
